<svg width="34" height="33" viewBox="0 0 34 33" fill="none" xmlns="http://www.w3.org/2000/svg">
<path d="M18.7724 8.43823H15.4975V14.988H8.94769V18.2629H15.4975V24.8127H18.7724V18.2629H25.3222V14.988H18.7724V8.43823ZM17.1349 0.250977C8.09622 0.250977 0.760437 7.58676 0.760437 16.6255C0.760437 25.6642 8.09622 33 17.1349 33C26.1737 33 33.5095 25.6642 33.5095 16.6255C33.5095 7.58676 26.1737 0.250977 17.1349 0.250977ZM17.1349 29.7251C9.91379 29.7251 4.03534 23.8466 4.03534 16.6255C4.03534 9.40433 9.91379 3.52588 17.1349 3.52588C24.3561 3.52588 30.2346 9.40433 30.2346 16.6255C30.2346 23.8466 24.3561 29.7251 17.1349 29.7251Z" fill="#AFAFAF"/>
</svg>
