<svg width="33" height="33" viewBox="0 0 33 33" fill="none" xmlns="http://www.w3.org/2000/svg">
<path d="M27.5 9.625L28.7925 6.7925L31.625 5.5L28.7925 4.2075L27.5 1.375L26.2075 4.2075L23.375 5.5L26.2075 6.7925L27.5 9.625Z" fill="#38AAAE"/>
<path d="M11.6875 9.625L12.98 6.7925L15.8125 5.5L12.98 4.2075L11.6875 1.375L10.395 4.2075L7.5625 5.5L10.395 6.7925L11.6875 9.625Z" fill="#38AAAE"/>
<path d="M27.5 17.1875L26.2075 20.02L23.375 21.3125L26.2075 22.605L27.5 25.4375L28.7925 22.605L31.625 21.3125L28.7925 20.02L27.5 17.1875Z" fill="#38AAAE"/>
<path d="M24.3513 12.54L20.46 8.64875C20.185 8.3875 19.8413 8.25 19.4838 8.25C19.1263 8.25 18.7825 8.3875 18.5075 8.64875L3.14877 24.0075C2.61252 24.5437 2.61252 25.41 3.14877 25.9463L7.04002 29.8375C7.31502 30.1125 7.65877 30.25 8.01627 30.25C8.37377 30.25 8.71752 30.1125 8.99252 29.8512L24.3513 14.4925C24.8875 13.9563 24.8875 13.0762 24.3513 12.54ZM19.4838 11.5775L21.4225 13.5162L19.8138 15.125L17.875 13.1863L19.4838 11.5775ZM8.01627 26.9363L6.07752 24.9975L15.9363 15.125L17.875 17.0637L8.01627 26.9363Z" fill="#38AAAE"/>
</svg>
